<svg xmlns="http://www.w3.org/2000/svg" viewBox="0 0 1024 1024" role="img" aria-label="Financas Pessoais">
  <defs>
    <radialGradient id="bgGlow" cx="24%" cy="8%" r="86%">
      <stop stop-color="#2b124c"/>
      <stop offset="0.52" stop-color="#0b0c24"/>
      <stop offset="1" stop-color="#04050d"/>
    </radialGradient>
    <linearGradient id="purpleBlue" x1="170" y1="252" x2="850" y2="774" gradientUnits="userSpaceOnUse">
      <stop stop-color="#f06dff"/>
      <stop offset="0.48" stop-color="#9b5cff"/>
      <stop offset="1" stop-color="#42b8ff"/>
    </linearGradient>
    <linearGradient id="coin" x1="320" y1="266" x2="728" y2="724" gradientUnits="userSpaceOnUse">
      <stop stop-color="#8e52d2"/>
      <stop offset="0.52" stop-color="#3e1b71"/>
      <stop offset="1" stop-color="#16091f"/>
    </linearGradient>
    <filter id="glow" x="-20%" y="-20%" width="140%" height="140%">
      <feDropShadow dx="0" dy="0" stdDeviation="15" flood-color="#bf63ff" flood-opacity="0.58"/>
      <feDropShadow dx="0" dy="0" stdDeviation="20" flood-color="#45b5ff" flood-opacity="0.34"/>
    </filter>
    <filter id="shadow" x="-20%" y="-20%" width="140%" height="140%">
      <feDropShadow dx="0" dy="28" stdDeviation="22" flood-color="#000000" flood-opacity="0.52"/>
    </filter>
  </defs>
  <rect x="42" y="42" width="940" height="940" rx="205" fill="url(#bgGlow)"/>
  <rect x="42" y="42" width="940" height="940" rx="205" fill="none" stroke="#3b236c" stroke-width="10"/>
  <g filter="url(#shadow)">
    <path d="M512 126c95 77 196 110 314 134 38 8 64 42 64 81v196c0 188-129 306-378 361C263 843 134 725 134 537V341c0-39 26-73 64-81 118-24 219-57 314-134Z" fill="#0d1028" opacity="0.88"/>
    <path d="M512 126c95 77 196 110 314 134 38 8 64 42 64 81v196c0 188-129 306-378 361C263 843 134 725 134 537V341c0-39 26-73 64-81 118-24 219-57 314-134Z" fill="none" stroke="url(#purpleBlue)" stroke-width="38" stroke-linejoin="round" filter="url(#glow)"/>
    <circle cx="512" cy="501" r="197" fill="url(#coin)" stroke="url(#purpleBlue)" stroke-width="28" filter="url(#glow)"/>
    <circle cx="512" cy="501" r="143" fill="#241045" opacity="0.78"/>
    <text x="512" y="570" text-anchor="middle" font-family="Inter, Arial, sans-serif" font-size="160" font-weight="900" fill="#f9ddff" stroke="#ffffff" stroke-width="3">R$</text>
    <path d="M254 735 491 552c18-14 44-13 61 2l80 71c19 17 48 16 66-2l186-178" fill="none" stroke="#11142e" stroke-width="98" stroke-linecap="round" stroke-linejoin="round" opacity="0.72"/>
    <path d="M254 735 491 552c18-14 44-13 61 2l80 71c19 17 48 16 66-2l186-178" fill="none" stroke="url(#purpleBlue)" stroke-width="62" stroke-linecap="round" stroke-linejoin="round" filter="url(#glow)"/>
    <path d="M856 451 940 406 919 500Z" fill="#7fd5ff" stroke="#d8f0ff" stroke-width="16" stroke-linejoin="round" filter="url(#glow)"/>
  </g>
</svg>
